<svg xmlns="http://www.w3.org/2000/svg" width="800" height="600"><circle cx="23.700000" cy="123.700000" r="23.700000" fill="none" stroke="black" stroke-width="2" /><text x="23.700000" y="95.000000" text-anchor="middle" alignment-baseline="baseline" font-size="12">.git</text><circle cx="22.400000" cy="123.700000" r="5.400000" fill="grey" /><circle cx="22.889463" cy="122.683619" r="5.200000" fill="grey" /><circle cx="23.989277" cy="122.432594" r="6.100000" fill="grey" /><circle cx="24.871260" cy="123.135951" r="5.600000" fill="grey" /><circle cx="24.871260" cy="124.264049" r="5.200000" fill="grey" /><circle cx="23.989277" cy="124.967406" r="6.200000" fill="grey" /><circle cx="155.600000" cy="208.200000" r="108.200000" fill="none" stroke="black" stroke-width="2" /><text x="155.600000" y="95.000000" text-anchor="middle" alignment-baseline="baseline" font-size="12">hooks</text><circle cx="238.800000" cy="208.200000" r="6.600000" fill="grey" /><circle cx="231.606982" cy="242.040489" r="7.500000" fill="grey" /><circle cx="211.271666" cy="270.029649" r="22.500000" fill="grey" /><text x="211.271666" y="270.029649" text-anchor="middle" alignment-baseline="middle" font-size="8">fsmonitor-watchman.sample</text><circle cx="181.310214" cy="287.327902" r="5.900000" fill="grey" /><circle cx="146.903232" cy="290.944222" r="6.500000" fill="grey" /><circle cx="114.000000" cy="280.253314" r="10.000000" fill="grey" /><circle cx="88.289786" cy="257.103733" r="6.400000" fill="grey" /><circle cx="74.218120" cy="225.498253" r="10.400000" fill="grey" /><circle cx="74.218120" cy="190.901747" r="22.000000" fill="grey" /><text x="74.218120" y="190.901747" text-anchor="middle" alignment-baseline="middle" font-size="8">pre-rebase.sample</text><circle cx="88.289786" cy="159.296267" r="7.500000" fill="grey" /><circle cx="114.000000" cy="136.146686" r="9.300000" fill="grey" /><circle cx="146.903232" cy="125.455778" r="12.900000" fill="grey" /><circle cx="181.310214" cy="129.072098" r="12.800000" fill="grey" /><circle cx="211.271666" cy="146.370351" r="17.900000" fill="grey" /><text x="211.271666" y="146.370351" text-anchor="middle" alignment-baseline="middle" font-size="8">update.sample</text><circle cx="284.500000" cy="120.700000" r="20.700000" fill="none" stroke="black" stroke-width="2" /><text x="284.500000" y="95.000000" text-anchor="middle" alignment-baseline="baseline" font-size="12">info</text><circle cx="280.200000" cy="120.700000" r="5.700000" fill="grey" /><circle cx="325.800000" cy="120.600000" r="20.600000" fill="none" stroke="black" stroke-width="2" /><text x="325.800000" y="95.000000" text-anchor="middle" alignment-baseline="baseline" font-size="12">origin</text><circle cx="321.400000" cy="120.600000" r="5.200000" fill="grey" /><circle cx="325.800000" cy="116.200000" r="5.200000" fill="grey" /><circle cx="330.200000" cy="120.600000" r="5.200000" fill="grey" /><circle cx="366.600000" cy="120.200000" r="20.200000" fill="none" stroke="black" stroke-width="2" /><text x="366.600000" y="95.000000" text-anchor="middle" alignment-baseline="baseline" font-size="12">37</text><circle cx="361.800000" cy="120.200000" r="5.200000" fill="grey" /><circle cx="412.000000" cy="125.200000" r="25.200000" fill="none" stroke="black" stroke-width="2" /><text x="412.000000" y="95.000000" text-anchor="middle" alignment-baseline="baseline" font-size="12">.github</text><circle cx="412.200000" cy="125.200000" r="9.400000" fill="grey" /><circle cx="411.900000" cy="125.373205" r="5.800000" fill="grey" /><circle cx="473.400000" cy="136.200000" r="36.200000" fill="none" stroke="black" stroke-width="2" /><text x="473.400000" y="95.000000" text-anchor="middle" alignment-baseline="baseline" font-size="12">docs</text><circle cx="484.600000" cy="136.200000" r="18.200000" fill="grey" /><text x="484.600000" y="136.200000" text-anchor="middle" alignment-baseline="middle" font-size="8">CODE_OF_CONDUCT.md</text><circle cx="473.400000" cy="147.400000" r="5.400000" fill="grey" /><circle cx="462.200000" cy="136.200000" r="7.600000" fill="grey" /><circle cx="530.300000" cy="120.700000" r="20.700000" fill="none" stroke="black" stroke-width="2" /><text x="530.300000" y="95.000000" text-anchor="middle" alignment-baseline="baseline" font-size="12">.devcontainer</text><circle cx="526.000000" cy="120.700000" r="5.700000" fill="grey" /><circle cx="571.200000" cy="120.200000" r="20.200000" fill="none" stroke="black" stroke-width="2" /><text x="571.200000" y="95.000000" text-anchor="middle" alignment-baseline="baseline" font-size="12">logs</text><circle cx="566.400000" cy="120.200000" r="5.200000" fill="grey" /><circle cx="2384.300000" cy="2710.700000" r="2384.300000" fill="none" stroke="black" stroke-width="2" /><text x="2384.300000" y="321.400000" text-anchor="middle" alignment-baseline="baseline" font-size="12">pack</text><circle cx="4743.600000" cy="2710.700000" r="9.200000" fill="grey" /><circle cx="2384.300000" cy="5070.000000" r="2364.800000" fill="grey" /><text x="2384.300000" y="5070.000000" text-anchor="middle" alignment-baseline="middle" font-size="8">pack-f1a7aaf59e9528750165a6f14cf42b0da168702c.pack</text><circle cx="25.000000" cy="2710.700000" r="5.300000" fill="grey" /><circle cx="32.700000" cy="5137.700000" r="32.700000" fill="none" stroke="black" stroke-width="2" /><text x="32.700000" y="5100.000000" text-anchor="middle" alignment-baseline="baseline" font-size="12">other-configurations</text><circle cx="40.400000" cy="5137.700000" r="5.800000" fill="grey" /><circle cx="32.700000" cy="5145.400000" r="9.500000" fill="grey" /><circle cx="25.000000" cy="5137.700000" r="12.400000" fill="grey" /><circle cx="94.100000" cy="5133.700000" r="28.700000" fill="none" stroke="black" stroke-width="2" /><text x="94.100000" y="5100.000000" text-anchor="middle" alignment-baseline="baseline" font-size="12">super-linter-configurations</text><circle cx="97.800000" cy="5133.700000" r="6.100000" fill="grey" /><circle cx="95.950000" cy="5136.904294" r="8.400000" fill="grey" /><circle cx="92.250000" cy="5136.904294" r="6.100000" fill="grey" /><circle cx="90.400000" cy="5133.700000" r="7.200000" fill="grey" /><circle cx="92.250000" cy="5130.495706" r="5.900000" fill="grey" /><circle cx="162.500000" cy="5144.700000" r="39.700000" fill="none" stroke="black" stroke-width="2" /><text x="162.500000" y="5100.000000" text-anchor="middle" alignment-baseline="baseline" font-size="12">workflows</text><circle cx="177.200000" cy="5144.700000" r="16.800000" fill="grey" /><text x="177.200000" y="5144.700000" text-anchor="middle" alignment-baseline="middle" font-size="8">code-checks.yml</text><circle cx="162.500000" cy="5159.400000" r="9.900000" fill="grey" /><circle cx="147.800000" cy="5144.700000" r="8.000000" fill="grey" /><circle cx="286.500000" cy="5189.300000" r="84.300000" fill="none" stroke="black" stroke-width="2" /><text x="286.500000" y="5100.000000" text-anchor="middle" alignment-baseline="baseline" font-size="12">workspace</text><circle cx="345.800000" cy="5189.300000" r="7.000000" fill="grey" /><circle cx="336.386334" cy="5221.360000" r="7.900000" fill="grey" /><circle cx="311.134110" cy="5243.241177" r="7.100000" fill="grey" /><circle cx="278.060730" cy="5247.996412" r="7.200000" fill="grey" /><circle cx="247.666758" cy="5234.115950" r="6.400000" fill="grey" /><circle cx="229.602067" cy="5206.006741" r="7.000000" fill="grey" /><circle cx="229.602067" cy="5172.593259" r="6.600000" fill="grey" /><circle cx="247.666758" cy="5144.484050" r="8.400000" fill="grey" /><circle cx="278.060730" cy="5130.603588" r="5.400000" fill="grey" /><circle cx="311.134110" cy="5135.358823" r="51.300000" fill="lightblue" /><text x="311.134110" y="5135.358823" text-anchor="middle" alignment-baseline="middle" font-size="8">main.go</text><circle cx="391.400000" cy="5125.600000" r="20.600000" fill="none" stroke="black" stroke-width="2" /><text x="391.400000" y="5100.000000" text-anchor="middle" alignment-baseline="baseline" font-size="12">origin</text><circle cx="387.000000" cy="5125.600000" r="5.200000" fill="grey" /><circle cx="391.400000" cy="5121.200000" r="5.200000" fill="grey" /><circle cx="395.800000" cy="5125.600000" r="5.200000" fill="grey" /><circle cx="432.200000" cy="5125.200000" r="20.200000" fill="none" stroke="black" stroke-width="2" /><text x="432.200000" y="5100.000000" text-anchor="middle" alignment-baseline="baseline" font-size="12">37</text><circle cx="427.400000" cy="5125.200000" r="5.200000" fill="grey" /><circle cx="478.000000" cy="5130.600000" r="25.600000" fill="none" stroke="black" stroke-width="2" /><text x="478.000000" y="5100.000000" text-anchor="middle" alignment-baseline="baseline" font-size="12">ISSUE_TEMPLATE</text><circle cx="478.600000" cy="5130.600000" r="8.400000" fill="grey" /><circle cx="478.000000" cy="5131.200000" r="5.200000" fill="grey" /><circle cx="477.400000" cy="5130.600000" r="7.000000" fill="grey" /></svg>